Coordinates
version=1
nRows=10
nColumns=40
inDegrees=yes

Units are S.I. units (second, meters, Newtons, ...)
If the header above contains a line with 'inDegrees', this indicates whether rotational values are in degrees (yes) or radians (no).

endheader
time	pelvis_tilt	pelvis_list	pelvis_rotation	pelvis_tx	pelvis_ty	pelvis_tz	hip_flexion_r	hip_adduction_r	hip_rotation_r	knee_angle_r	knee_angle_r_beta	ankle_angle_r	subtalar_angle_r	mtp_angle_r	hip_flexion_l	hip_adduction_l	hip_rotation_l	knee_angle_l	knee_angle_l_beta	ankle_angle_l	subtalar_angle_l	mtp_angle_l	lumbar_extension	lumbar_bending	lumbar_rotation	arm_flex_r	arm_add_r	arm_rot_r	elbow_flex_r	pro_sup_r	wrist_flex_r	wrist_dev_r	arm_flex_l	arm_add_l	arm_rot_l	elbow_flex_l	pro_sup_l	wrist_flex_l	wrist_dev_l
      4.06500000	      3.42633415	      1.65599433	      1.31501484	     -0.37795143	      0.87024343	     -0.76158091	     37.36877189	      3.59884443	     -1.31257987	     70.29351179	      1.22685322	     23.65622500	      0.00000000	      0.00000000	     58.90913255	      3.65449808	      5.14976206	     17.15501242	      0.29941145	     -7.22946825	      0.00000000	      0.00000000	    -36.07744287	     -0.57512940	     -0.15878807	     89.92185588	    -12.11928214	     12.19965759	     51.64527445	     86.73080319	      0.00000000	      0.00000000	     89.92814391	     -7.10826008	     11.49878168	     50.22536347	     85.96138892	      0.00000000	      0.00000000
      4.07000000	      3.39324096	      1.65494095	      1.32226684	     -0.37778855	      0.87157608	     -0.76169221	     37.24149768	      3.56326561	     -1.33671104	     69.99845401	      1.22170349	     23.52471698	      0.00000000	      0.00000000	     58.84116329	      3.65348801	      5.11971426	     17.16676883	      0.29961664	     -7.26190546	      0.00000000	      0.00000000	    -36.02048176	     -0.56062144	     -0.15014043	     89.92166281	    -12.15527357	     12.21317609	     51.61860054	     86.73054776	      0.00000000	      0.00000000	     89.92778069	     -7.11567701	     11.54141705	     50.17706404	     85.96437238	      0.00000000	      0.00000000
      4.07500000	      3.35554172	      1.69229421	      1.31816169	     -0.37769387	      0.87299995	     -0.76173482	     37.11287375	      3.50565909	     -1.32655199	     69.68210328	      1.21618213	     23.37438933	      0.00000000	      0.00000000	     58.75985128	      3.69193126	      5.15614161	     17.20375113	      0.30026210	     -7.23859444	      0.00000000	      0.00000000	    -35.97216590	     -0.59981714	     -0.16450403	     89.92141598	    -12.17941086	     12.23263716	     51.60010479	     86.73063638	      0.00000000	      0.00000000	     89.92760264	     -7.12029753	     11.58615477	     50.11673745	     85.96803978	      0.00000000	      0.00000000
      4.08000000	      3.33719578	      1.69731808	      1.36162652	     -0.37759327	      0.87439838	     -0.76188091	     36.95159240	      3.45766662	     -1.35482489	     69.35312645	      1.21044040	     23.19473053	      0.00000000	      0.00000000	     58.67123163	      3.75036557	      5.19475693	     17.23256846	      0.30076506	     -7.21631766	      0.00000000	      0.00000000	    -35.93198842	     -0.57716204	     -0.17775210	     89.92117171	    -12.21315965	     12.25588674	     51.57949639	     86.73426570	      0.00000000	      0.00000000	     89.92726393	     -7.11211243	     11.65547204	     50.04920807	     85.97374322	      0.00000000	      0.00000000
      4.08500000	      3.30483458	      1.70093584	      1.32608109	     -0.37741640	      0.87577658	     -0.76194485	     36.81556788	      3.42145467	     -1.38313180	     69.04318927	      1.20503098	     23.03958813	      0.00000000	      0.00000000	     58.59399902	      3.73758021	      5.23757338	     17.26466128	      0.30132518	     -7.19583784	      0.00000000	      0.00000000	    -35.87532945	     -0.58523853	     -0.16967506	     89.92072190	    -12.21643444	     12.29924081	     51.56787452	     86.74344011	      0.00000000	      0.00000000	     89.92694208	     -7.14551713	     11.68471066	     49.97126980	     85.97537820	      0.00000000	      0.00000000
      4.09000000	      3.27498854	      1.73991227	      1.33731380	     -0.37729720	      0.87718900	     -0.76209644	     36.67334447	      3.34736901	     -1.37701583	     68.72776397	      1.19952577	     22.88700699	      0.00000000	      0.00000000	     58.51008046	      3.78759251	      5.26798044	     17.29474180	      0.30185019	     -7.18465527	      0.00000000	      0.00000000	    -35.83122919	     -0.60080633	     -0.17880994	     89.92084303	    -12.26209741	     12.29745435	     51.54642140	     86.74391100	      0.00000000	      0.00000000	     89.92664011	     -7.14198594	     11.73554914	     49.91890925	     85.97996029	      0.00000000	      0.00000000
      4.09500000	      3.26060311	      1.71182747	      1.33039414	     -0.37713783	      0.87861601	     -0.76210815	     36.50381468	      3.34230724	     -1.42476645	     68.38097365	      1.19347314	     22.71311548	      0.00000000	      0.00000000	     58.42103702	      3.74888048	      5.23858340	     17.31748453	      0.30224712	     -7.24485886	      0.00000000	      0.00000000	    -35.78726598	     -0.58236122	     -0.14757602	     89.92052780	    -12.27934375	     12.31572819	     51.52732949	     86.74766535	      0.00000000	      0.00000000	     89.92622556	     -7.14004297	     11.80741383	     49.84396302	     85.98667226	      0.00000000	      0.00000000
      4.10000000	      3.23053730	      1.73396532	      1.32641487	     -0.37697913	      0.87999461	     -0.76224451	     36.35782810	      3.27896209	     -1.44303270	     68.06829553	      1.18801587	     22.56221299	      0.00000000	      0.00000000	     58.34244424	      3.77215690	      5.24459469	     17.35399804	      0.30288440	     -7.25093449	      0.00000000	      0.00000000	    -35.73347676	     -0.58637509	     -0.15019776	     89.92020673	    -12.30474155	     12.32609277	     51.51145918	     86.74866325	      0.00000000	      0.00000000	     89.92596773	     -7.15206052	     11.85505397	     49.77917019	     85.99033236	      0.00000000	      0.00000000
      4.10500000	      3.21174929	      1.77835436	      1.33230240	     -0.37682808	      0.88145104	     -0.76254511	     36.19951405	      3.17625322	     -1.45815352	     67.74591752	      1.18238932	     22.39626899	      0.00000000	      0.00000000	     58.23859131	      3.85453090	      5.32559685	     17.40316783	      0.30374258	     -7.19080267	      0.00000000	      0.00000000	    -35.69148499	     -0.60622241	     -0.17078284	     89.91998649	    -12.33621736	     12.33510038	     51.49934055	     86.74871828	      0.00000000	      0.00000000	     89.92551460	     -7.13440929	     11.91779980	     49.70083891	     85.99647185	      0.00000000	      0.00000000
      4.11000000	      3.26533561	      1.70127831	      1.34538670	     -0.37673793	      0.88299574	     -0.76233989	     35.96201451	      3.24999678	     -1.53126512	     67.39135055	      1.17620095	     22.12200441	      0.00000000	      0.00000000	     58.06030813	      3.80490585	      5.42501130	     17.41885540	      0.30401638	     -7.11608161	      0.00000000	      0.00000000	    -35.72217434	     -0.54140318	     -0.10559046	     89.92005758	    -12.36007767	     12.38132616	     51.44200553	     86.75204169	      0.00000000	      0.00000000	     89.92550850	     -7.13733824	     12.04022474	     49.62571551	     86.00758770	      0.00000000	      0.00000000
